<?xml version="1.0" encoding="utf-8"?>
<!-- Generator: Adobe Illustrator 27.9.0, SVG Export Plug-In . SVG Version: 6.00 Build 0)  -->
<svg version="1.1" id="Layer_1" xmlns="http://www.w3.org/2000/svg" xmlns:xlink="http://www.w3.org/1999/xlink" x="0px" y="0px"
	 viewBox="0 0 128 128" style="enable-background:new 0 0 128 128;" xml:space="preserve">
<style type="text/css">
	.st0{fill:#FFFFFF;}
</style>
<path class="st0" d="M126.67,98.44c-4.56,1.16-7.38,0.05-9.91-3.75c-5.68-8.51-11.95-16.63-18-24.9c-0.78-1.07-1.59-2.12-2.6-3.45
	C89,76,81.85,85.2,75.14,94.77c-2.4,3.42-4.92,4.91-9.4,3.7l26.92-36.13L67.6,29.71c4.31-0.84,7.29-0.41,9.93,3.45
	c5.83,8.52,12.26,16.63,18.67,25.21c6.45-8.55,12.8-16.67,18.8-25.11c2.41-3.42,5-4.72,9.33-3.46c-3.28,4.35-6.49,8.63-9.72,12.88
	c-4.36,5.73-8.64,11.53-13.16,17.14c-1.61,2-1.35,3.3,0.09,5.19C109.9,76,118.16,87.1,126.67,98.44z M1.33,61.74
	c0.72-3.61,1.2-7.29,2.2-10.83c6-21.43,30.6-30.34,47.5-17.06C60.93,41.64,63.39,52.62,62.9,65H7.1
	c-0.84,22.21,15.15,35.62,35.53,28.78c7.15-2.4,11.36-8,13.47-15c1.07-3.51,2.84-4.06,6.14-3.06c-1.69,8.76-5.52,16.08-13.52,20.66
	c-12,6.86-29.13,4.64-38.14-4.89C5.26,85.89,3,78.92,2,71.39c-0.15-1.2-0.46-2.38-0.7-3.57C1.32,65.79,1.33,63.77,1.33,61.74z
	 M7.2,60.25h50.43c-0.33-16.06-10.33-27.47-24-27.57C18.63,32.56,7.85,43.7,7.2,60.25z"/>
</svg>
