<?xml version="1.0" encoding="utf-8"?>
<!-- Generator: Adobe Illustrator 27.9.0, SVG Export Plug-In . SVG Version: 6.00 Build 0)  -->
<svg version="1.1" id="Layer_1" xmlns="http://www.w3.org/2000/svg" xmlns:xlink="http://www.w3.org/1999/xlink" x="0px" y="0px"
	 viewBox="0 0 128 128" style="enable-background:new 0 0 128 128;" xml:space="preserve">
<style type="text/css">
	.st0{fill-rule:evenodd;clip-rule:evenodd;fill:#FFFFFF;}
	.st1{fill:#FFFFFF;}
</style>
<g>
	<path class="st0" d="M64,5.1C30.65,5.1,3.61,32.14,3.61,65.49c0,26.68,17.3,49.32,41.3,57.3c3.02,0.56,4.12-1.31,4.12-2.9
		c0-1.44-0.06-6.2-0.08-11.24c-16.8,3.65-20.34-7.12-20.34-7.12c-2.75-6.98-6.7-8.84-6.7-8.84c-5.48-3.75,0.41-3.67,0.41-3.67
		c6.06,0.43,9.26,6.22,9.26,6.22c5.39,9.23,14.13,6.56,17.57,5.02c0.54-3.9,2.11-6.57,3.83-8.08c-13.41-1.53-27.51-6.7-27.51-29.84
		c0-6.59,2.36-11.98,6.22-16.21c-0.63-1.52-2.69-7.66,0.58-15.98c0,0,5.07-1.62,16.61,6.19C53.7,35,58.87,34.33,64,34.3
		c5.13,0.02,10.3,0.69,15.13,2.03c11.53-7.81,16.59-6.19,16.59-6.19c3.29,8.32,1.22,14.46,0.59,15.98
		c3.87,4.23,6.21,9.62,6.21,16.21c0,23.19-14.13,28.3-27.57,29.8c2.17,1.87,4.1,5.55,4.1,11.18c0,8.08-0.07,14.58-0.07,16.57
		c0,1.61,1.09,3.49,4.15,2.9c23.98-7.99,41.26-30.62,41.26-57.29C124.39,32.14,97.35,5.1,64,5.1L64,5.1z"/>
	<path class="st1" d="M26.48,91.81c-0.13,0.3-0.6,0.39-1.03,0.18c-0.44-0.2-0.68-0.61-0.54-0.91c0.13-0.31,0.6-0.39,1.04-0.19
		C26.39,91.09,26.64,91.51,26.48,91.81L26.48,91.81z M28.93,94.54c-0.29,0.27-0.85,0.14-1.23-0.28c-0.4-0.42-0.47-0.98-0.18-1.25
		c0.3-0.27,0.84-0.14,1.24,0.28C29.15,93.71,29.23,94.27,28.93,94.54L28.93,94.54z M31.31,98.01c-0.37,0.26-0.98,0.02-1.35-0.52
		c-0.37-0.54-0.37-1.18,0.01-1.44c0.37-0.26,0.97-0.03,1.35,0.51C31.69,97.1,31.69,97.75,31.31,98.01L31.31,98.01z M34.57,101.37
		c-0.33,0.36-1.04,0.27-1.55-0.23c-0.53-0.49-0.67-1.18-0.34-1.54c0.34-0.37,1.04-0.26,1.56,0.23
		C34.77,100.32,34.93,101.01,34.57,101.37L34.57,101.37z M39.07,103.32c-0.15,0.47-0.83,0.69-1.51,0.49
		c-0.68-0.21-1.13-0.76-0.99-1.24c0.14-0.48,0.82-0.7,1.51-0.49C38.77,102.29,39.22,102.84,39.07,103.32z M44.02,103.68
		c0.02,0.5-0.56,0.91-1.28,0.92c-0.72,0.02-1.31-0.39-1.31-0.88c0-0.5,0.57-0.91,1.29-0.92C43.43,102.79,44.02,103.19,44.02,103.68
		L44.02,103.68z M48.61,102.9c0.09,0.49-0.41,0.98-1.13,1.12c-0.7,0.13-1.35-0.17-1.44-0.65c-0.09-0.5,0.42-1,1.12-1.13
		C47.88,102.12,48.52,102.41,48.61,102.9L48.61,102.9z"/>
</g>
</svg>
